<svg width="21" height="19" viewBox="0 0 21 19" fill="none" xmlns="http://www.w3.org/2000/svg">
<path d="M10.494 1.74262C5.91666 -2.26093 0.0966196 1.25671 0.00118346 6.02544C-0.023137 7.24076 0.327684 8.42459 1.026 9.51597H5.55231L6.35739 8.17413C6.59116 7.78455 7.15688 7.772 7.4039 8.16039L9.10252 10.8296L11.5786 5.60252C11.7945 5.14642 12.438 5.13194 12.6762 5.57422L14.7987 9.51597H19.9621C23.787 3.53799 16.2277 -3.27218 10.494 1.74262Z" fill="#276750"/>
<path d="M13.8896 10.4228L12.1697 7.22874L9.7376 12.3631C9.53069 12.7999 8.92211 12.8379 8.66262 12.43L6.90031 9.66074L6.42814 10.4477C6.31695 10.633 6.11673 10.7463 5.90063 10.7463H1.99919C2.12149 10.8743 1.46968 10.2238 10.0601 18.7698C10.3 19.0085 10.6879 19.0086 10.9279 18.7698C19.3861 10.3553 18.8667 10.8741 18.9888 10.7463H14.4312C14.2049 10.7464 13.9969 10.6221 13.8896 10.4228Z" fill="#276750"/>
</svg>
