<svg width="24" height="20" viewBox="0 0 24 20" fill="none" xmlns="http://www.w3.org/2000/svg">
<path d="M17.202 11.5899C15.6369 9.70019 13.6585 8.65945 11.6313 8.65945C9.60409 8.65945 7.62572 9.70019 6.06067 11.5899C4.65387 13.2885 3.814 15.4292 3.814 17.3163C3.814 18.233 4.09425 18.9312 4.64692 19.3917C5.19241 19.8463 5.9126 20 6.71607 20C7.57102 20 8.52033 19.8259 9.45307 19.6547C10.2681 19.5052 11.038 19.364 11.6314 19.364C12.1435 19.364 12.8656 19.498 13.6299 19.6399C15.4163 19.9716 17.4411 20.3475 18.6107 19.375C19.1667 18.9127 19.4487 18.22 19.4487 17.3163C19.4487 15.4292 18.6088 13.2885 17.202 11.5899Z" fill="#276750"/>
<path d="M17.362 1.3286C16.7893 0.484284 15.9693 8.39233e-05 15.1122 8.39233e-05C14.255 8.39233e-05 13.4351 0.484329 12.8624 1.3286C12.3364 2.10422 12.0466 3.12278 12.0466 4.19668C12.0466 5.27058 12.3363 6.28914 12.8624 7.06476C13.4351 7.90903 14.2551 8.39328 15.1122 8.39328C15.9694 8.39328 16.7893 7.90903 17.362 7.06476C17.8881 6.28914 18.1778 5.27058 18.1778 4.19668C18.1778 3.12278 17.8881 2.10418 17.362 1.3286Z" fill="#276750"/>
<path d="M10.4002 1.32852C9.82759 0.4842 9.00762 0 8.15045 0C7.29327 0 6.47326 0.484245 5.90065 1.32852C5.3746 2.10414 5.08486 3.1227 5.08486 4.1966C5.08486 5.2705 5.37455 6.28906 5.90065 7.06468C6.47331 7.90899 7.29327 8.39324 8.15045 8.39324C9.00762 8.39324 9.82759 7.90899 10.4002 7.06468C10.9263 6.28906 11.216 5.27054 11.216 4.1966C11.216 3.1227 10.9263 2.10409 10.4002 1.32852Z" fill="#276750"/>
<path d="M23.1272 7.91608C22.8963 7.13078 22.4015 6.56016 21.7339 6.30941C21.1967 6.10763 20.5903 6.14184 20.0264 6.40577C19.2492 6.76944 18.614 7.52038 18.2837 8.46602C18.0137 9.23878 17.9801 10.0556 18.1889 10.766C18.4198 11.5513 18.9146 12.1219 19.5822 12.3727C19.8133 12.4595 20.057 12.5026 20.3047 12.5026C20.6331 12.5026 20.9684 12.4268 21.2899 12.2763C22.067 11.9127 22.7023 11.1617 23.0326 10.2161V10.2161C23.3024 9.44337 23.3361 8.62654 23.1272 7.91608Z" fill="#276750"/>
<path d="M4.97904 8.46587C4.64869 7.52024 4.01346 6.76933 3.23634 6.40567C2.67236 6.14174 2.06589 6.10757 1.52871 6.3093C0.861094 6.5601 0.366263 7.13072 0.135408 7.91597C-0.0734566 8.62644 -0.0397893 9.44327 0.23014 10.216V10.216C0.560542 11.1617 1.19572 11.9126 1.97284 12.2762C2.29434 12.4267 2.6296 12.5025 2.95796 12.5025C3.20567 12.5025 3.44948 12.4593 3.68047 12.3726C4.34818 12.1218 4.84297 11.5512 5.07382 10.7659C5.28259 10.0555 5.24893 9.23867 4.97904 8.46587Z" fill="#276750"/>
</svg>
