<svg width="22" height="22" viewBox="0 0 22 22" fill="none" xmlns="http://www.w3.org/2000/svg">
<path d="M20.0001 5.09621C20.0001 2.28615 17.7139 0 14.9038 0C13.543 0 12.2632 0.529782 11.3003 1.49269L1.49269 11.3003C0.530251 12.2627 0 13.5425 0 14.9038C0 17.7139 2.28615 20.0001 5.09621 20.0001C6.45756 20.0001 7.73734 19.4698 8.69974 18.5074L18.5079 8.69974C19.4703 7.73683 20.0001 6.45704 20.0001 5.09621ZM6.76759 10.2676L3.61379 13.4214C3.22365 13.812 3.00001 14.3521 3.00001 14.9038C3.00001 15.1802 2.77636 15.4039 2.49999 15.4039C2.22361 15.4039 1.99997 15.1802 1.99997 14.9038C1.99997 14.0894 2.33054 13.2911 2.90672 12.7144L6.06053 9.5606C6.25586 9.36527 6.57226 9.36527 6.76754 9.5606C6.96292 9.75588 6.96292 10.0723 6.76759 10.2676ZM17.0933 7.28566L12.293 12.0859L7.91406 7.70702L12.7144 2.90724C13.2994 2.32229 14.0772 2.00002 14.9038 2.00002C16.6109 2.00002 18 3.38916 18 5.09621C18 5.92286 17.6778 6.7007 17.0933 7.28566Z" fill="#276750"/>
<path d="M19.0903 10.0981C18.8931 9.96627 18.6289 9.99266 18.46 10.1611L10.1611 18.46C9.99268 18.6285 9.96634 18.8921 10.0981 19.0904C11.3096 20.9122 13.3286 22 15.5 22C19.084 22 22.0001 19.084 22.0001 15.5C22 13.3286 20.9121 11.3096 19.0903 10.0981ZM18.8535 12.8535L12.8535 18.8535C12.7559 18.9511 12.6279 19 12.5 19C12.3721 19 12.2441 18.9511 12.1464 18.8535C11.9511 18.6582 11.9511 18.3418 12.1464 18.1465L18.1465 12.1465C18.3418 11.9511 18.6582 11.9511 18.8535 12.1465C19.0489 12.3418 19.0489 12.6582 18.8535 12.8535Z" fill="#276750"/>
</svg>
