<svg width="14" height="16" viewBox="0 0 14 16" fill="none" xmlns="http://www.w3.org/2000/svg">
<path d="M12.7273 6.72727C12.7273 11.1818 6.99999 15 6.99999 15C6.99999 15 1.27272 11.1818 1.27272 6.72727C1.27272 5.20831 1.87613 3.75155 2.9502 2.67748C4.02427 1.60341 5.48103 1 6.99999 1C8.51896 1 9.97571 1.60341 11.0498 2.67748C12.1239 3.75155 12.7273 5.20831 12.7273 6.72727Z" stroke="#276750" stroke-width="2" stroke-linecap="round" stroke-linejoin="round"/>
<path d="M6.99999 8.63642C8.05435 8.63642 8.90908 7.78169 8.90908 6.72733C8.90908 5.67297 8.05435 4.81824 6.99999 4.81824C5.94563 4.81824 5.0909 5.67297 5.0909 6.72733C5.0909 7.78169 5.94563 8.63642 6.99999 8.63642Z" stroke="#276750" stroke-width="2" stroke-linecap="round" stroke-linejoin="round"/>
</svg>
