<svg width="33" height="32" viewBox="0 0 33 32" fill="none" xmlns="http://www.w3.org/2000/svg">
<path d="M31.6813 23.4251C31.5407 23.3398 28.1897 21.3268 24.001 21.3268C23.5697 21.3268 23.1416 21.3439 22.7183 21.3699C23.7012 20.8359 24.6915 20.2174 25.6078 19.5014C30.0322 16.0449 31.8915 10.4296 31.9684 10.1924C32.0393 9.97287 31.9924 9.73187 31.8434 9.55531C31.6936 9.38006 31.467 9.29862 31.2359 9.32662C31.0445 9.35531 26.508 10.0686 22.3557 13.845C21.2336 14.8658 20.2177 15.9994 19.325 17.113C19.7209 15.5679 20.0009 13.8347 20.0009 11.9878C20.0009 5.59912 16.6989 0.495125 16.5582 0.281438C16.3121 -0.0938125 15.6897 -0.0938125 15.4437 0.281438C15.303 0.495125 12.0009 5.59912 12.0009 11.9878C12.0009 13.8348 12.2809 15.5679 12.6768 17.1131C11.7841 15.9994 10.7683 14.8658 9.6461 13.8451C5.49373 10.0686 0.957291 9.35531 0.765916 9.32669C0.538729 9.29869 0.308916 9.38013 0.158479 9.55538C0.00941646 9.73194 -0.0374585 9.97294 0.033479 10.1925C0.110291 10.4296 1.96967 16.045 6.39417 19.5016C7.31042 20.2175 8.30073 20.8359 9.28367 21.37C8.86035 21.344 8.43229 21.3269 8.00098 21.3269C3.81217 21.3269 0.461291 23.3399 0.320666 23.4252C0.121416 23.5471 0.000353971 23.764 0.000978971 23.9972C0.00160397 24.2311 0.124666 24.4473 0.324541 24.5672C0.467104 24.6525 3.8636 26.6635 8.00098 26.6635C8.92385 26.6635 9.83335 26.5309 10.6974 26.3295C9.28317 27.9962 9.33054 29.9316 9.33498 30.0276C9.3441 30.2327 9.44698 30.423 9.61429 30.5422C9.72823 30.6236 9.86367 30.6659 10.001 30.6659C10.0649 30.6659 10.1287 30.6568 10.1912 30.6386C10.2914 30.6086 12.6769 29.8809 14.505 27.767C14.8327 27.3881 15.0969 27.0126 15.3344 26.6439V31.333C15.3344 31.7017 15.6326 32.0001 16.0011 32.0001C16.3696 32.0001 16.6678 31.7017 16.6678 31.333V26.6439C16.9052 27.0126 17.1695 27.3881 17.4972 27.767C19.3254 29.8809 21.7108 30.6086 21.811 30.6386C21.8735 30.6568 21.9374 30.6659 22.0012 30.6659C22.1385 30.6659 22.274 30.6236 22.3879 30.5422C22.5552 30.423 22.6581 30.2327 22.6672 30.0276C22.6716 29.9315 22.7195 27.9912 21.2999 26.3231C22.1686 26.5282 23.0809 26.6635 24.0012 26.6635C28.19 26.6635 31.5409 24.6506 31.6815 24.5652C31.88 24.444 32.0012 24.2278 32.0012 23.9952C32.0009 23.7626 31.8799 23.5462 31.6813 23.4251Z" fill="#F8C357"/>
</svg>
